<svg width="61" height="60" viewBox="0 0 61 60" fill="none" xmlns="http://www.w3.org/2000/svg">
<g id="Layer_1" clip-path="url(#clip0_1040_58180)">
<path id="Vector" d="M15.3704 54.1992C13.4346 54.1992 11.5727 54.1928 9.71082 54.212C9.56315 54.212 9.35769 54.3709 9.28065 54.5106C8.6675 55.6213 7.73013 56.1301 6.47334 56.1237C4.32894 56.1125 2.18453 56.1205 0 56.1205V38.8144H1.85388C3.21821 38.8144 4.58415 38.8449 5.94687 38.8047C7.12019 38.7694 8.18919 38.9396 8.89543 39.8432C9.90664 39.1049 10.7975 38.2606 11.8504 37.7406C12.9001 37.2205 14.1104 37.0263 15.3351 36.6635V34.6331C14.0847 34.1468 12.807 33.7407 11.6096 33.1677C5.31446 30.1549 1.33865 23.2979 1.91648 16.5373C2.55531 9.07841 7.4364 3.00152 14.4186 1.05615C20.0043 -0.499184 25.1245 0.532891 29.7873 3.95014C29.9928 4.10101 30.2913 4.19732 30.5449 4.19732C34.9044 4.17645 37.6571 8.18116 36.0889 12.2645C36.0311 12.417 36.0632 12.7156 36.1708 12.8022C37.198 13.6321 38.2494 14.4314 39.2237 15.1858C39.8625 14.7877 40.4146 14.3495 41.0406 14.0719C41.9828 13.6545 42.9635 13.7348 43.8961 14.1762C44.169 14.3046 44.3423 14.3126 44.5734 14.0799C47.1609 11.4796 49.7595 8.89061 52.3549 6.29839C52.3967 6.25826 52.424 6.20369 52.4769 6.13146C51.3742 5.03839 50.2715 3.94532 49.0565 2.73989C52.7899 1.80734 56.3516 0.918113 60.0337 0C59.1236 3.64035 58.2312 7.20526 57.3211 10.844C56.1686 9.68513 55.0772 8.58564 53.9632 7.46529C53.7642 7.64506 53.6422 7.74297 53.5331 7.85212C51.0355 10.3432 48.5428 12.8407 46.0357 15.3222C45.7532 15.6015 45.6906 15.807 45.8623 16.1906C46.5092 17.6432 46.1673 19.2884 45.0437 20.3943C43.9378 21.4826 42.2958 21.8036 40.8673 21.2113C39.4195 20.611 38.4516 19.1857 38.503 17.6255C38.5174 17.1857 38.3842 16.9257 38.0391 16.6882C37.5191 16.3286 37.0279 15.9257 36.4356 15.4747C36.9075 19.9545 35.9429 23.9769 33.4068 27.5739C30.8676 31.1773 27.4006 33.4534 23.1037 34.5272V36.8867C23.7281 36.8867 24.3621 36.9011 24.9929 36.8738C25.1053 36.869 25.2449 36.7085 25.3107 36.5865C25.9158 35.4742 26.85 34.9573 28.11 34.9638C30.2544 34.975 32.4004 34.967 34.5801 34.967C34.6315 34.3313 34.6299 33.7134 34.7374 33.1147C35.1451 30.8708 37.0632 29.24 39.3457 29.2063C41.2718 29.1774 43.1979 29.1902 45.124 29.1999C47.9409 29.2143 50.0163 31.2897 50.0436 34.1002C50.0468 34.3586 50.0436 34.6187 50.0436 34.967C50.2812 34.967 50.4914 34.967 50.7017 34.967C52.6679 34.967 54.6342 34.9621 56.6004 34.967C58.4479 34.9718 59.671 36.174 59.6726 38.0038C59.6774 44.3118 59.6774 50.6214 59.6726 56.9295C59.6726 58.7304 58.4495 59.9599 56.6566 59.9615C47.1063 59.9663 37.556 59.9663 28.0057 59.9615C26.2433 59.9615 25.017 58.7288 25.0025 56.9776C24.9945 56.0788 25.0025 55.1799 25.0025 54.2377H23.0764C23.0764 54.6952 23.0475 55.151 23.0812 55.602C23.3252 58.939 22.0749 60.2199 18.6785 59.9647C18.5581 59.9551 18.4377 59.9647 18.3173 59.9631C16.6288 59.9358 15.3945 58.7175 15.3736 57.0386C15.3623 56.1189 15.372 55.2008 15.372 54.1944L15.3704 54.1992ZM25.3717 7.94682C21.3349 5.24866 15.1858 5.40435 11.0735 9.49573C7.06562 13.4812 6.52631 19.7314 9.80552 24.338C13.0671 28.9206 19.2017 30.5112 24.2112 28.0715C29.9831 25.2594 31.4229 19.2435 30.5433 15.7444C29.1822 15.6513 27.9575 15.1601 26.9784 14.3158C25.4568 15.8359 23.9865 17.3061 22.5564 18.7347C22.7233 19.2611 22.9946 19.7972 23.0507 20.3526C23.2113 21.9384 21.9336 23.3477 20.3478 23.4296C18.7459 23.5114 17.3591 22.2594 17.2997 20.6752C17.2387 19.046 18.5308 17.6929 20.1568 17.6608C20.4152 17.656 20.7523 17.6287 20.916 17.4698C22.4408 15.9915 23.94 14.4844 25.4311 12.9724C25.5386 12.8632 25.6173 12.5984 25.5611 12.4748C24.8838 10.9997 24.8276 9.50376 25.3701 7.94842L25.3717 7.94682ZM28.2047 41.6313C28.423 42.1722 28.7456 42.657 28.789 43.1642C28.8483 43.8447 29.1838 44.3134 29.5819 44.7885C31.8948 47.5493 35.0825 48.1384 38.4869 48.3936C38.4869 48.0693 38.4837 47.7933 38.4869 47.5188C38.5126 45.8367 39.7373 44.612 41.421 44.5879C42.0631 44.5783 42.7051 44.5734 43.3455 44.5895C44.9234 44.628 46.1432 45.8527 46.1882 47.4289C46.1978 47.7419 46.1882 48.0565 46.1882 48.461C47.3679 48.2812 48.4674 48.1753 49.5396 47.9393C54.257 46.904 57.6662 42.8624 57.7448 38.2686C57.7625 37.2093 57.4607 36.8947 56.4174 36.8947C52.4063 36.8947 48.3952 36.8947 44.384 36.8947C39.0086 36.8947 33.6347 36.8915 28.2593 36.9011C27.9367 36.9011 27.6124 36.9958 27.1534 37.068C29.065 38.5543 29.2994 39.8143 28.2015 41.6313H28.2047ZM57.7513 44.5975C55.0322 48.8478 50.8686 50.0597 46.1914 50.3181C46.1914 50.6824 46.1978 51.0018 46.1914 51.3197C46.1545 52.9312 44.933 54.1623 43.3247 54.1976C42.6634 54.212 42.0005 54.2136 41.3392 54.1976C39.7598 54.1591 38.5351 52.936 38.4917 51.363C38.4821 51.0291 38.4917 50.6953 38.4917 50.3325C34.9477 50.0789 31.5947 49.4561 28.858 46.8254C28.858 48.3679 28.8516 49.7467 28.8596 51.1238C28.866 52.3549 28.346 53.2666 27.2689 53.883C27.1084 53.9761 26.9559 54.2297 26.9463 54.4159C26.9094 55.1751 26.9303 55.9359 26.9319 56.6967C26.9335 57.7577 27.2224 58.0466 28.2882 58.0466C37.6539 58.0466 47.0196 58.0466 56.3853 58.0466C57.4591 58.0466 57.7529 57.7593 57.7529 56.708C57.7529 52.8445 57.7529 48.981 57.7529 45.1176C57.7529 44.9442 57.7529 44.7725 57.7529 44.5991L57.7513 44.5975ZM32.5722 15.51C33.6989 23.5515 28.2015 29.0121 23.2674 30.5176C17.5501 32.2608 11.3753 30.118 8.02707 25.1566C4.71897 20.2531 5.02394 13.7171 8.78307 9.15866C10.6787 6.86017 13.0719 5.31286 15.9675 4.60662C19.6463 3.70777 23.1214 4.29684 26.3316 6.21492C26.8548 5.77834 27.3412 5.37225 27.8259 4.96616C22.6703 1.25679 14.4779 1.07862 8.76221 6.38988C3.01597 11.7284 2.16688 20.3205 6.72374 26.6462C11.2517 32.9301 19.794 34.8915 26.5675 31.1773C33.837 27.1903 35.5143 19.3558 34.2559 14.6433C33.6925 14.9338 33.1307 15.2211 32.5706 15.51H32.5722ZM15.3479 45.2572C14.7283 45.3728 14.128 45.4851 13.478 45.6071V43.6778C14.5903 43.4996 15.014 43.3263 15.4635 42.6923C16.4667 41.275 17.8326 40.6955 19.5484 40.7309C21.6543 40.7742 23.7618 40.7469 25.8677 40.7373C26.5161 40.7341 26.9383 40.32 26.9238 39.7566C26.9094 39.214 26.5017 38.8465 25.8805 38.8208C25.7409 38.8144 25.5996 38.8192 25.46 38.8192C22.6318 38.8192 19.794 38.9508 16.9755 38.7823C14.0959 38.6105 11.7894 39.4692 9.97405 41.7035C9.73329 41.9989 9.5808 42.2525 9.58401 42.6457C9.60006 45.6505 9.59204 48.6536 9.59364 51.6583C9.59364 51.8509 9.6113 52.0452 9.62093 52.2362H15.3479V45.2604V45.2572ZM21.1519 47.4514C21.1519 48.6729 21.1471 49.8943 21.1535 51.1158C21.1583 51.9103 21.5018 52.2667 22.2771 52.2731C23.46 52.2827 24.6446 52.2843 25.8276 52.2731C26.5691 52.2667 26.9238 51.9039 26.927 51.1511C26.9335 48.6873 26.9351 46.2251 26.927 43.7613C26.9238 43.0213 26.5579 42.6698 25.8035 42.665C24.6398 42.6554 23.4761 42.657 22.3124 42.665C21.4954 42.6698 21.1567 43.0165 21.1535 43.8479C21.1471 45.0502 21.1535 46.2508 21.1535 47.453L21.1519 47.4514ZM30.7552 6.12825C28.6333 6.13948 26.9126 7.88582 26.9303 10.0126C26.9479 12.104 28.6766 13.815 30.7761 13.8166C32.8996 13.8182 34.6363 12.0815 34.6315 9.96121C34.6267 7.84249 32.8803 6.11701 30.7552 6.12825ZM48.1191 34.9477C48.1191 34.6845 48.1191 34.487 48.1191 34.288C48.1159 32.3025 46.9361 31.1276 44.9394 31.1244C43.1578 31.1228 41.3745 31.1179 39.5928 31.1244C37.4998 31.134 36.1339 32.9108 36.6523 34.9461H48.1191V34.9477ZM19.2242 42.6778C18.6576 42.5976 18.0926 42.779 17.6255 43.1883C17.457 43.3359 17.3125 43.6168 17.3109 43.8367C17.2933 48.2202 17.2949 52.6021 17.3013 56.9856C17.3013 57.6614 17.6721 58.0225 18.343 58.0402C18.9241 58.0562 19.5067 58.0546 20.0877 58.0402C20.786 58.0225 21.1391 57.6582 21.1487 56.9407C21.1599 56.0996 21.1712 55.2586 21.1375 54.4191C21.1295 54.2329 20.9818 53.9745 20.8213 53.883C19.7443 53.2698 19.221 52.3614 19.2242 51.1287C19.2306 48.9072 19.2258 46.6857 19.2258 44.4643C19.2258 43.8881 19.2258 43.3118 19.2258 42.6746L19.2242 42.6778ZM3.77036 54.1719V40.7886H1.91648V54.1719H3.77036ZM5.77352 40.7389V54.1992C6.00626 54.1992 6.20208 54.1992 6.39951 54.1992C7.34009 54.1944 7.66272 53.8766 7.66432 52.9392C7.66593 49.2796 7.66753 45.6184 7.66432 41.9587C7.66432 41.0663 7.32725 40.7437 6.42198 40.7389C6.22295 40.7389 6.02392 40.7389 5.77513 40.7389H5.77352ZM42.3279 19.5854C43.3712 19.5918 44.2508 18.7314 44.2637 17.6913C44.2781 16.648 43.4242 15.7652 42.3809 15.7444C41.3087 15.7219 40.413 16.5983 40.4146 17.6689C40.4163 18.7122 41.2814 19.5805 42.3263 19.587L42.3279 19.5854ZM53.1045 3.71258C54.1799 4.79281 55.2553 5.87143 56.3147 6.93561C56.6518 5.58573 57.0081 4.1588 57.3853 2.6468C55.8653 3.0256 54.4367 3.38193 53.1045 3.71258ZM21.115 36.8642V34.9188H17.343V36.8642H21.115ZM44.2669 48.4016C44.2669 48.1528 44.2685 47.9377 44.2669 47.7226C44.2589 46.8366 43.9282 46.5124 43.0245 46.5076C42.4852 46.5044 41.9443 46.4963 41.4066 46.5124C40.8512 46.5285 40.5029 46.827 40.4307 47.3759C40.3874 47.7034 40.4227 48.042 40.4227 48.4016H44.2669ZM40.4163 50.3759C40.4163 50.7226 40.4002 51.0195 40.4195 51.3148C40.4564 51.883 40.8047 52.2458 41.3729 52.2667C42.031 52.2907 42.6923 52.2956 43.3504 52.2618C43.8752 52.2346 44.1946 51.9119 44.2524 51.3903C44.2893 51.0628 44.2588 50.7274 44.2588 50.3759H40.4163ZM20.1696 21.505C20.6897 21.5147 21.1359 21.0845 21.1455 20.5645C21.1551 20.0444 20.725 19.6014 20.2033 19.5918C19.6817 19.5821 19.2387 20.0107 19.229 20.5324C19.2194 21.0524 19.6479 21.497 20.1696 21.5066V21.505Z" fill="#2492EB"/>
</g>
<defs>
<clipPath id="clip0_1040_58180">
<rect width="60.0337" height="60" fill="white"/>
</clipPath>
</defs>
</svg>
